<mxfile host="app.diagrams.net" modified="2023-10-02T14:41:30.400Z" agent="Mozilla/5.0 (Macintosh; Intel Mac OS X 10_15_7) AppleWebKit/537.36 (KHTML, like Gecko) Chrome/116.0.0.0 Safari/537.36" etag="o0q5VgylGyN6lDSfCXXv" version="21.8.0" type="github">
  <diagram name="Page-1" id="Rvh56WEDjhvADAaJ6AUH">
    <mxGraphModel dx="1026" dy="1796" grid="1" gridSize="10" guides="1" tooltips="1" connect="1" arrows="1" fold="1" page="1" pageScale="1" pageWidth="850" pageHeight="1100" math="0" shadow="0">
      <root>
        <mxCell id="0" />
        <mxCell id="1" parent="0" />
        <mxCell id="4epgJZTf9iVhTWG-nEtf-5" style="edgeStyle=orthogonalEdgeStyle;rounded=0;orthogonalLoop=1;jettySize=auto;html=1;entryX=0;entryY=0.5;entryDx=0;entryDy=0;" edge="1" parent="1" source="Dj-qdFE7T2WBTazND0Hn-24" target="Dj-qdFE7T2WBTazND0Hn-36">
          <mxGeometry relative="1" as="geometry" />
        </mxCell>
        <mxCell id="Dj-qdFE7T2WBTazND0Hn-24" value="&lt;font style=&quot;font-size: 14px;&quot;&gt;Product Backlog&lt;/font&gt;" style="rounded=0;whiteSpace=wrap;html=1;fillColor=#dae8fc;strokeColor=#6c8ebf;" parent="1" vertex="1">
          <mxGeometry x="65" y="160" width="120" height="60" as="geometry" />
        </mxCell>
        <mxCell id="Dj-qdFE7T2WBTazND0Hn-27" value="&lt;b&gt;&lt;font style=&quot;font-size: 14px;&quot;&gt;Artifacts&lt;/font&gt;&lt;/b&gt;" style="rounded=0;whiteSpace=wrap;html=1;dashed=1;dashPattern=8 8;fillColor=#dae8fc;strokeColor=#6c8ebf;" parent="1" vertex="1">
          <mxGeometry x="200" y="-100" width="120" height="60" as="geometry" />
        </mxCell>
        <mxCell id="4epgJZTf9iVhTWG-nEtf-8" style="edgeStyle=orthogonalEdgeStyle;rounded=0;orthogonalLoop=1;jettySize=auto;html=1;entryX=0.5;entryY=0;entryDx=0;entryDy=0;" edge="1" parent="1" source="Dj-qdFE7T2WBTazND0Hn-28" target="Dj-qdFE7T2WBTazND0Hn-24">
          <mxGeometry relative="1" as="geometry" />
        </mxCell>
        <mxCell id="4epgJZTf9iVhTWG-nEtf-9" value="Manages" style="edgeLabel;html=1;align=center;verticalAlign=middle;resizable=0;points=[];" vertex="1" connectable="0" parent="4epgJZTf9iVhTWG-nEtf-8">
          <mxGeometry x="-0.0625" y="1" relative="1" as="geometry">
            <mxPoint as="offset" />
          </mxGeometry>
        </mxCell>
        <mxCell id="Dj-qdFE7T2WBTazND0Hn-28" value="&lt;font style=&quot;font-size: 14px;&quot;&gt;Product Owner&lt;/font&gt;" style="rounded=0;whiteSpace=wrap;html=1;fillColor=#d5e8d4;strokeColor=#82b366;" parent="1" vertex="1">
          <mxGeometry x="65" y="40" width="120" height="60" as="geometry" />
        </mxCell>
        <mxCell id="Dj-qdFE7T2WBTazND0Hn-29" value="&lt;b&gt;&lt;font style=&quot;font-size: 14px;&quot;&gt;Accountabilities&lt;/font&gt;&lt;/b&gt;" style="rounded=0;whiteSpace=wrap;html=1;dashed=1;dashPattern=8 8;fillColor=#d5e8d4;strokeColor=#82b366;" parent="1" vertex="1">
          <mxGeometry x="350" y="-100" width="120" height="60" as="geometry" />
        </mxCell>
        <mxCell id="Dj-qdFE7T2WBTazND0Hn-30" value="&lt;b&gt;&lt;font style=&quot;font-size: 14px;&quot;&gt;Events&lt;/font&gt;&lt;/b&gt;" style="rounded=0;whiteSpace=wrap;html=1;dashed=1;dashPattern=8 8;fillColor=#f8cecc;strokeColor=#b85450;" parent="1" vertex="1">
          <mxGeometry x="500" y="-100" width="120" height="60" as="geometry" />
        </mxCell>
        <mxCell id="4epgJZTf9iVhTWG-nEtf-44" style="edgeStyle=orthogonalEdgeStyle;rounded=0;orthogonalLoop=1;jettySize=auto;html=1;exitX=1;exitY=0.5;exitDx=0;exitDy=0;" edge="1" parent="1" source="Dj-qdFE7T2WBTazND0Hn-31">
          <mxGeometry relative="1" as="geometry">
            <mxPoint x="530" y="221" as="targetPoint" />
            <mxPoint x="485" y="261" as="sourcePoint" />
            <Array as="points">
              <mxPoint x="472" y="261" />
              <mxPoint x="530" y="261" />
            </Array>
          </mxGeometry>
        </mxCell>
        <mxCell id="Dj-qdFE7T2WBTazND0Hn-31" value="&lt;font style=&quot;font-size: 14px;&quot;&gt;Sprint Backlog&lt;/font&gt;" style="rounded=0;whiteSpace=wrap;html=1;fillColor=#dae8fc;strokeColor=#6c8ebf;" parent="1" vertex="1">
          <mxGeometry x="352" y="235" width="120" height="60" as="geometry" />
        </mxCell>
        <mxCell id="4epgJZTf9iVhTWG-nEtf-74" style="edgeStyle=orthogonalEdgeStyle;rounded=0;orthogonalLoop=1;jettySize=auto;html=1;" edge="1" parent="1" source="Dj-qdFE7T2WBTazND0Hn-32" target="4epgJZTf9iVhTWG-nEtf-73">
          <mxGeometry relative="1" as="geometry">
            <Array as="points">
              <mxPoint x="890" y="270" />
            </Array>
          </mxGeometry>
        </mxCell>
        <mxCell id="Dj-qdFE7T2WBTazND0Hn-32" value="&lt;font style=&quot;font-size: 14px;&quot;&gt;Increment&lt;/font&gt;" style="rounded=0;whiteSpace=wrap;html=1;fillColor=#dae8fc;strokeColor=#6c8ebf;" parent="1" vertex="1">
          <mxGeometry x="611" y="240" width="120" height="60" as="geometry" />
        </mxCell>
        <mxCell id="Dj-qdFE7T2WBTazND0Hn-33" value="&lt;font style=&quot;font-size: 14px;&quot;&gt;Scrum Master&lt;/font&gt;" style="rounded=0;whiteSpace=wrap;html=1;fillColor=#d5e8d4;strokeColor=#82b366;" parent="1" vertex="1">
          <mxGeometry x="690" y="700" width="120" height="60" as="geometry" />
        </mxCell>
        <mxCell id="Dj-qdFE7T2WBTazND0Hn-34" value="&lt;font style=&quot;font-size: 14px;&quot;&gt;Developers&lt;/font&gt;" style="rounded=0;whiteSpace=wrap;html=1;fillColor=#d5e8d4;strokeColor=#82b366;" parent="1" vertex="1">
          <mxGeometry x="400" y="40" width="120" height="60" as="geometry" />
        </mxCell>
        <mxCell id="4epgJZTf9iVhTWG-nEtf-10" style="edgeStyle=orthogonalEdgeStyle;rounded=0;orthogonalLoop=1;jettySize=auto;html=1;entryX=0.833;entryY=-0.067;entryDx=0;entryDy=0;entryPerimeter=0;" edge="1" parent="1" source="Dj-qdFE7T2WBTazND0Hn-35" target="Dj-qdFE7T2WBTazND0Hn-37">
          <mxGeometry relative="1" as="geometry" />
        </mxCell>
        <mxCell id="4epgJZTf9iVhTWG-nEtf-11" value="Executed to optimize efficiency" style="edgeLabel;html=1;align=center;verticalAlign=middle;resizable=0;points=[];" vertex="1" connectable="0" parent="4epgJZTf9iVhTWG-nEtf-10">
          <mxGeometry x="-0.0167" y="-2" relative="1" as="geometry">
            <mxPoint y="1" as="offset" />
          </mxGeometry>
        </mxCell>
        <mxCell id="Dj-qdFE7T2WBTazND0Hn-35" value="&lt;font style=&quot;font-size: 14px;&quot;&gt;Daily Scrum&lt;/font&gt;" style="rounded=0;whiteSpace=wrap;html=1;fillColor=#f8cecc;strokeColor=#b85450;" parent="1" vertex="1">
          <mxGeometry x="540.5" y="40" width="120" height="60" as="geometry" />
        </mxCell>
        <mxCell id="4epgJZTf9iVhTWG-nEtf-43" style="edgeStyle=orthogonalEdgeStyle;rounded=0;orthogonalLoop=1;jettySize=auto;html=1;entryX=0;entryY=0.5;entryDx=0;entryDy=0;" edge="1" parent="1" source="Dj-qdFE7T2WBTazND0Hn-36" target="Dj-qdFE7T2WBTazND0Hn-31">
          <mxGeometry relative="1" as="geometry" />
        </mxCell>
        <mxCell id="Dj-qdFE7T2WBTazND0Hn-36" value="&lt;font style=&quot;font-size: 14px;&quot;&gt;Sprint Planning&lt;/font&gt;" style="rounded=0;whiteSpace=wrap;html=1;fillColor=#f8cecc;strokeColor=#b85450;" parent="1" vertex="1">
          <mxGeometry x="265" y="160" width="120" height="60" as="geometry" />
        </mxCell>
        <mxCell id="4epgJZTf9iVhTWG-nEtf-12" style="edgeStyle=orthogonalEdgeStyle;rounded=0;orthogonalLoop=1;jettySize=auto;html=1;entryX=0;entryY=0.5;entryDx=0;entryDy=0;" edge="1" parent="1" source="Dj-qdFE7T2WBTazND0Hn-37" target="Dj-qdFE7T2WBTazND0Hn-38">
          <mxGeometry relative="1" as="geometry" />
        </mxCell>
        <mxCell id="4epgJZTf9iVhTWG-nEtf-48" style="edgeStyle=orthogonalEdgeStyle;rounded=0;orthogonalLoop=1;jettySize=auto;html=1;entryX=0;entryY=0.25;entryDx=0;entryDy=0;" edge="1" parent="1" source="Dj-qdFE7T2WBTazND0Hn-37" target="Dj-qdFE7T2WBTazND0Hn-32">
          <mxGeometry relative="1" as="geometry">
            <mxPoint x="595" y="260" as="targetPoint" />
            <Array as="points">
              <mxPoint x="540" y="260" />
              <mxPoint x="600" y="260" />
              <mxPoint x="600" y="255" />
            </Array>
          </mxGeometry>
        </mxCell>
        <mxCell id="Dj-qdFE7T2WBTazND0Hn-37" value="&lt;font style=&quot;font-size: 14px;&quot;&gt;Sprint&lt;/font&gt;" style="rounded=0;whiteSpace=wrap;html=1;fillColor=#f8cecc;strokeColor=#b85450;" parent="1" vertex="1">
          <mxGeometry x="475" y="160" width="120" height="60" as="geometry" />
        </mxCell>
        <mxCell id="4epgJZTf9iVhTWG-nEtf-18" style="edgeStyle=orthogonalEdgeStyle;rounded=0;orthogonalLoop=1;jettySize=auto;html=1;" edge="1" parent="1" source="Dj-qdFE7T2WBTazND0Hn-38" target="4epgJZTf9iVhTWG-nEtf-20">
          <mxGeometry relative="1" as="geometry">
            <Array as="points">
              <mxPoint x="770" y="377" />
              <mxPoint x="305" y="377" />
            </Array>
          </mxGeometry>
        </mxCell>
        <mxCell id="Dj-qdFE7T2WBTazND0Hn-38" value="&lt;font style=&quot;font-size: 14px;&quot;&gt;Sprint Review&lt;/font&gt;" style="rounded=0;whiteSpace=wrap;html=1;fillColor=#f8cecc;strokeColor=#b85450;" parent="1" vertex="1">
          <mxGeometry x="720" y="160" width="120" height="60" as="geometry" />
        </mxCell>
        <mxCell id="4epgJZTf9iVhTWG-nEtf-67" style="edgeStyle=orthogonalEdgeStyle;rounded=0;orthogonalLoop=1;jettySize=auto;html=1;entryX=0.5;entryY=0;entryDx=0;entryDy=0;" edge="1" parent="1" source="Dj-qdFE7T2WBTazND0Hn-39" target="4epgJZTf9iVhTWG-nEtf-56">
          <mxGeometry relative="1" as="geometry" />
        </mxCell>
        <mxCell id="Dj-qdFE7T2WBTazND0Hn-39" value="&lt;font style=&quot;font-size: 14px;&quot;&gt;Sprint Retrospective&lt;/font&gt;" style="rounded=0;whiteSpace=wrap;html=1;fillColor=#f8cecc;strokeColor=#b85450;" parent="1" vertex="1">
          <mxGeometry x="482.5" y="280" width="120" height="60" as="geometry" />
        </mxCell>
        <mxCell id="4epgJZTf9iVhTWG-nEtf-41" style="edgeStyle=orthogonalEdgeStyle;rounded=0;orthogonalLoop=1;jettySize=auto;html=1;entryX=0;entryY=0.5;entryDx=0;entryDy=0;" edge="1" parent="1" source="4epgJZTf9iVhTWG-nEtf-13" target="4epgJZTf9iVhTWG-nEtf-37">
          <mxGeometry relative="1" as="geometry" />
        </mxCell>
        <mxCell id="4epgJZTf9iVhTWG-nEtf-13" value="&lt;font style=&quot;font-size: 14px;&quot;&gt;Product Backlog&lt;/font&gt;" style="rounded=0;whiteSpace=wrap;html=1;fillColor=#dae8fc;strokeColor=#6c8ebf;" vertex="1" parent="1">
          <mxGeometry x="65" y="520" width="120" height="60" as="geometry" />
        </mxCell>
        <mxCell id="4epgJZTf9iVhTWG-nEtf-17" value="" style="endArrow=none;dashed=1;html=1;rounded=0;strokeWidth=2;" edge="1" parent="1">
          <mxGeometry width="50" height="50" relative="1" as="geometry">
            <mxPoint x="60" y="350" as="sourcePoint" />
            <mxPoint x="820" y="350" as="targetPoint" />
          </mxGeometry>
        </mxCell>
        <mxCell id="4epgJZTf9iVhTWG-nEtf-19" value="&lt;font style=&quot;font-size: 18px;&quot;&gt;Sprint 1&lt;/font&gt;" style="text;html=1;align=center;verticalAlign=middle;resizable=0;points=[];autosize=1;strokeColor=none;fillColor=none;" vertex="1" parent="1">
          <mxGeometry x="265" y="25" width="90" height="40" as="geometry" />
        </mxCell>
        <mxCell id="4epgJZTf9iVhTWG-nEtf-20" value="&lt;font style=&quot;font-size: 18px;&quot;&gt;Sprint 2&lt;/font&gt;" style="text;html=1;align=center;verticalAlign=middle;resizable=0;points=[];autosize=1;strokeColor=none;fillColor=none;" vertex="1" parent="1">
          <mxGeometry x="260" y="390" width="90" height="40" as="geometry" />
        </mxCell>
        <mxCell id="4epgJZTf9iVhTWG-nEtf-42" style="edgeStyle=orthogonalEdgeStyle;rounded=0;orthogonalLoop=1;jettySize=auto;html=1;entryX=0.829;entryY=-0.025;entryDx=0;entryDy=0;entryPerimeter=0;" edge="1" parent="1" source="4epgJZTf9iVhTWG-nEtf-35" target="4epgJZTf9iVhTWG-nEtf-39">
          <mxGeometry relative="1" as="geometry" />
        </mxCell>
        <mxCell id="4epgJZTf9iVhTWG-nEtf-35" value="&lt;font style=&quot;font-size: 14px;&quot;&gt;Daily Scrum&lt;/font&gt;" style="rounded=0;whiteSpace=wrap;html=1;fillColor=#f8cecc;strokeColor=#b85450;" vertex="1" parent="1">
          <mxGeometry x="557.5" y="400" width="120" height="60" as="geometry" />
        </mxCell>
        <mxCell id="4epgJZTf9iVhTWG-nEtf-46" style="edgeStyle=orthogonalEdgeStyle;rounded=0;orthogonalLoop=1;jettySize=auto;html=1;entryX=0;entryY=0.75;entryDx=0;entryDy=0;" edge="1" parent="1" source="4epgJZTf9iVhTWG-nEtf-37" target="4epgJZTf9iVhTWG-nEtf-45">
          <mxGeometry relative="1" as="geometry" />
        </mxCell>
        <mxCell id="4epgJZTf9iVhTWG-nEtf-37" value="&lt;font style=&quot;font-size: 14px;&quot;&gt;Sprint Planning&lt;/font&gt;" style="rounded=0;whiteSpace=wrap;html=1;fillColor=#f8cecc;strokeColor=#b85450;" vertex="1" parent="1">
          <mxGeometry x="272.5" y="520" width="120" height="60" as="geometry" />
        </mxCell>
        <mxCell id="4epgJZTf9iVhTWG-nEtf-38" style="edgeStyle=orthogonalEdgeStyle;rounded=0;orthogonalLoop=1;jettySize=auto;html=1;entryX=0;entryY=0.5;entryDx=0;entryDy=0;" edge="1" parent="1" source="4epgJZTf9iVhTWG-nEtf-39" target="4epgJZTf9iVhTWG-nEtf-40">
          <mxGeometry relative="1" as="geometry" />
        </mxCell>
        <mxCell id="4epgJZTf9iVhTWG-nEtf-63" style="edgeStyle=orthogonalEdgeStyle;rounded=0;orthogonalLoop=1;jettySize=auto;html=1;entryX=0;entryY=0.75;entryDx=0;entryDy=0;" edge="1" parent="1" source="4epgJZTf9iVhTWG-nEtf-39" target="4epgJZTf9iVhTWG-nEtf-60">
          <mxGeometry relative="1" as="geometry">
            <mxPoint x="580" y="690" as="targetPoint" />
            <Array as="points">
              <mxPoint x="580" y="630" />
              <mxPoint x="661" y="630" />
            </Array>
          </mxGeometry>
        </mxCell>
        <mxCell id="4epgJZTf9iVhTWG-nEtf-39" value="&lt;font style=&quot;font-size: 14px;&quot;&gt;Sprint&lt;/font&gt;" style="rounded=0;whiteSpace=wrap;html=1;fillColor=#f8cecc;strokeColor=#b85450;" vertex="1" parent="1">
          <mxGeometry x="482.5" y="520" width="120" height="60" as="geometry" />
        </mxCell>
        <mxCell id="4epgJZTf9iVhTWG-nEtf-40" value="&lt;font style=&quot;font-size: 14px;&quot;&gt;Sprint Review&lt;/font&gt;" style="rounded=0;whiteSpace=wrap;html=1;fillColor=#f8cecc;strokeColor=#b85450;" vertex="1" parent="1">
          <mxGeometry x="677.5" y="520" width="120" height="60" as="geometry" />
        </mxCell>
        <mxCell id="4epgJZTf9iVhTWG-nEtf-34" value="Executed to optimize efficiency" style="edgeLabel;html=1;align=center;verticalAlign=middle;resizable=0;points=[];" vertex="1" connectable="0" parent="1">
          <mxGeometry x="611.5" y="490" as="geometry" />
        </mxCell>
        <mxCell id="4epgJZTf9iVhTWG-nEtf-47" style="edgeStyle=orthogonalEdgeStyle;rounded=0;orthogonalLoop=1;jettySize=auto;html=1;exitX=1;exitY=0.75;exitDx=0;exitDy=0;" edge="1" parent="1" source="4epgJZTf9iVhTWG-nEtf-45" target="4epgJZTf9iVhTWG-nEtf-39">
          <mxGeometry relative="1" as="geometry">
            <mxPoint x="550" y="581" as="targetPoint" />
            <mxPoint x="485" y="621" as="sourcePoint" />
            <Array as="points">
              <mxPoint x="485" y="641" />
              <mxPoint x="485" y="640" />
              <mxPoint x="520" y="640" />
            </Array>
          </mxGeometry>
        </mxCell>
        <mxCell id="4epgJZTf9iVhTWG-nEtf-45" value="&lt;font style=&quot;font-size: 14px;&quot;&gt;Sprint Backlog&lt;/font&gt;" style="rounded=0;whiteSpace=wrap;html=1;fillColor=#dae8fc;strokeColor=#6c8ebf;" vertex="1" parent="1">
          <mxGeometry x="361" y="596" width="120" height="60" as="geometry" />
        </mxCell>
        <mxCell id="4epgJZTf9iVhTWG-nEtf-49" style="edgeStyle=orthogonalEdgeStyle;rounded=0;orthogonalLoop=1;jettySize=auto;html=1;entryX=0.558;entryY=1.05;entryDx=0;entryDy=0;entryPerimeter=0;" edge="1" parent="1" source="Dj-qdFE7T2WBTazND0Hn-32" target="Dj-qdFE7T2WBTazND0Hn-38">
          <mxGeometry relative="1" as="geometry">
            <Array as="points">
              <mxPoint x="787" y="280" />
            </Array>
          </mxGeometry>
        </mxCell>
        <mxCell id="4epgJZTf9iVhTWG-nEtf-54" style="edgeStyle=orthogonalEdgeStyle;rounded=0;orthogonalLoop=1;jettySize=auto;html=1;entryX=0.183;entryY=-0.033;entryDx=0;entryDy=0;entryPerimeter=0;" edge="1" parent="1" source="Dj-qdFE7T2WBTazND0Hn-34" target="Dj-qdFE7T2WBTazND0Hn-37">
          <mxGeometry relative="1" as="geometry" />
        </mxCell>
        <mxCell id="4epgJZTf9iVhTWG-nEtf-55" value="Manages" style="edgeLabel;html=1;align=center;verticalAlign=middle;resizable=0;points=[];" vertex="1" connectable="0" parent="1">
          <mxGeometry x="126" y="474" as="geometry" />
        </mxCell>
        <mxCell id="4epgJZTf9iVhTWG-nEtf-57" style="edgeStyle=orthogonalEdgeStyle;rounded=0;orthogonalLoop=1;jettySize=auto;html=1;entryX=0.5;entryY=0;entryDx=0;entryDy=0;" edge="1" parent="1" source="4epgJZTf9iVhTWG-nEtf-56" target="4epgJZTf9iVhTWG-nEtf-13">
          <mxGeometry relative="1" as="geometry" />
        </mxCell>
        <mxCell id="4epgJZTf9iVhTWG-nEtf-56" value="&lt;font style=&quot;font-size: 14px;&quot;&gt;Product Owner&lt;/font&gt;" style="rounded=0;whiteSpace=wrap;html=1;fillColor=#d5e8d4;strokeColor=#82b366;" vertex="1" parent="1">
          <mxGeometry x="65" y="386" width="120" height="60" as="geometry" />
        </mxCell>
        <mxCell id="4epgJZTf9iVhTWG-nEtf-58" value="&lt;font style=&quot;font-size: 14px;&quot;&gt;Developers&lt;/font&gt;" style="rounded=0;whiteSpace=wrap;html=1;fillColor=#d5e8d4;strokeColor=#82b366;" vertex="1" parent="1">
          <mxGeometry x="406" y="402" width="120" height="60" as="geometry" />
        </mxCell>
        <mxCell id="4epgJZTf9iVhTWG-nEtf-59" style="edgeStyle=orthogonalEdgeStyle;rounded=0;orthogonalLoop=1;jettySize=auto;html=1;entryX=0.183;entryY=-0.033;entryDx=0;entryDy=0;entryPerimeter=0;" edge="1" parent="1" source="4epgJZTf9iVhTWG-nEtf-58">
          <mxGeometry relative="1" as="geometry">
            <mxPoint x="503" y="520" as="targetPoint" />
          </mxGeometry>
        </mxCell>
        <mxCell id="4epgJZTf9iVhTWG-nEtf-72" style="edgeStyle=orthogonalEdgeStyle;rounded=0;orthogonalLoop=1;jettySize=auto;html=1;entryX=0.688;entryY=0.967;entryDx=0;entryDy=0;entryPerimeter=0;" edge="1" parent="1" source="4epgJZTf9iVhTWG-nEtf-60" target="4epgJZTf9iVhTWG-nEtf-40">
          <mxGeometry relative="1" as="geometry">
            <mxPoint x="760" y="600" as="targetPoint" />
            <Array as="points">
              <mxPoint x="760" y="630" />
            </Array>
          </mxGeometry>
        </mxCell>
        <mxCell id="4epgJZTf9iVhTWG-nEtf-60" value="&lt;font style=&quot;font-size: 14px;&quot;&gt;Increment&lt;/font&gt;" style="rounded=0;whiteSpace=wrap;html=1;fillColor=#dae8fc;strokeColor=#6c8ebf;" vertex="1" parent="1">
          <mxGeometry x="620" y="600" width="120" height="60" as="geometry" />
        </mxCell>
        <mxCell id="4epgJZTf9iVhTWG-nEtf-66" style="edgeStyle=orthogonalEdgeStyle;rounded=0;orthogonalLoop=1;jettySize=auto;html=1;entryX=0.438;entryY=0;entryDx=0;entryDy=0;entryPerimeter=0;" edge="1" parent="1" source="Dj-qdFE7T2WBTazND0Hn-37" target="Dj-qdFE7T2WBTazND0Hn-39">
          <mxGeometry relative="1" as="geometry" />
        </mxCell>
        <mxCell id="4epgJZTf9iVhTWG-nEtf-70" value="&lt;font style=&quot;font-size: 14px;&quot;&gt;Sprint Retrospective&lt;/font&gt;" style="rounded=0;whiteSpace=wrap;html=1;fillColor=#f8cecc;strokeColor=#b85450;" vertex="1" parent="1">
          <mxGeometry x="491.5" y="660" width="120" height="60" as="geometry" />
        </mxCell>
        <mxCell id="4epgJZTf9iVhTWG-nEtf-71" style="edgeStyle=orthogonalEdgeStyle;rounded=0;orthogonalLoop=1;jettySize=auto;html=1;entryX=0.438;entryY=0;entryDx=0;entryDy=0;entryPerimeter=0;exitX=0.5;exitY=1;exitDx=0;exitDy=0;" edge="1" parent="1" target="4epgJZTf9iVhTWG-nEtf-70" source="4epgJZTf9iVhTWG-nEtf-39">
          <mxGeometry relative="1" as="geometry">
            <mxPoint x="544" y="630" as="sourcePoint" />
            <Array as="points">
              <mxPoint x="543" y="620" />
              <mxPoint x="544" y="620" />
            </Array>
          </mxGeometry>
        </mxCell>
        <mxCell id="4epgJZTf9iVhTWG-nEtf-73" value="Definition of done" style="ellipse;shape=cloud;whiteSpace=wrap;html=1;" vertex="1" parent="1">
          <mxGeometry x="830" y="290" width="130" height="90" as="geometry" />
        </mxCell>
      </root>
    </mxGraphModel>
  </diagram>
</mxfile>
